<svg width="892" height="997" viewBox="0 0 892 997" fill="none" xmlns="http://www.w3.org/2000/svg">
<path d="M453.582 44.8178C471.967 43.1156 500.467 48.154 517.981 54.2385C533.71 59.7028 535.025 62.7077 552.263 63.7697C586.406 65.8734 618.782 81.1286 644.378 103.382C650.388 108.608 655.1 115.14 661.292 119.954C667.157 123.448 679.198 127.232 686.243 130.264C707.91 139.724 727.375 153.582 743.403 170.961C754.723 183.469 763.056 196.773 770.664 211.757C773.115 216.582 776.437 225.592 779.033 229.466C781.846 233.665 788.856 239.496 792.774 243.894C810.748 264.07 824.102 284.659 831.051 311.001C833.957 322.018 836.166 331.421 835.205 343.225C833.971 358.384 828.548 372.101 816.714 382.02C809.848 387.775 803.569 391.454 794.759 393.199C793.561 393.658 786.582 394.748 785.887 395.297C769.564 408.185 765.415 408.879 743.836 407.176C729.075 419.492 721.479 419.976 702.94 414.976L702.924 415C656.731 429.42 619.853 392.562 602.502 353.722C597.965 343.566 593.861 328.445 586.969 320.101C583.707 316.151 572.541 310.16 568.592 306.091C564.861 303.828 551.207 289.551 548.256 288.858C536.459 286.084 519.729 282.972 508.047 278.964C498.046 275.573 488.293 271.489 478.859 266.744C472.29 263.455 462.564 257.852 455.918 255.578C444.563 257.854 434.734 261.351 422.385 263.128C409.116 265.037 397.065 264.497 384.335 266.068C365.03 282.092 344.573 293.161 321.489 302.675C317.607 305.022 302.459 308.102 299.875 310.526C290.175 319.624 282.205 331.145 271.609 339.556C269.5 341.23 263.932 346.009 263.549 348.501C258.819 379.251 248.31 407.434 232.799 434.342C230.92 439.761 219.518 452.739 218.825 457.197C216.471 472.346 214.237 489.06 210.379 503.864C221.651 525.047 228.816 553.709 230.888 577.41C231.749 587.249 232.18 597.452 233.009 607.398C245.071 622.763 252.874 637.327 260.919 655.005C263.061 659.711 267.114 672.984 269.73 675.903C273.792 680.434 284.672 687.095 289.928 691.172C295.06 695.152 300.702 699.364 305.406 703.882C311.135 709.385 316.484 716.129 321.727 722.053C324.851 725.584 331.223 735.292 334.84 737.41C341.173 741.117 349.961 743.805 356.874 747.08C375.919 756.132 393.776 767.495 410.042 780.913C413.91 777.51 420.57 774.229 425.295 771.923C451.531 759.019 479.973 754.34 508.938 753.201C517.939 752.848 532.124 754.226 540.444 752.46C545.509 748.186 550.33 743.29 555.461 738.932C567.391 728.799 580.347 721.595 593.87 713.877C599.613 710.599 601.483 703.099 604.587 697.613C607.585 692.316 610.596 686.911 614.244 682.012C623.565 668.832 636.934 659.421 646.173 646.317C657.58 629.085 663.412 596.801 684.464 587.637C692.64 584.078 702.447 587.569 709.994 590.863L718.131 588.684C727.749 586.864 736.583 590.401 742.992 597.293C749.896 604.719 750.495 604.139 760.201 603.517C764.869 603.218 772.268 604.677 776.721 606.593C788.138 611.507 791.647 619.847 795.992 630.73C821.053 632.038 836.022 641.098 839.196 666.977C847.394 672.854 853.703 682.598 853.836 692.935C854.013 714.669 837.168 735.279 824.389 751.611C816.809 761.297 815.19 761.376 810.113 773.634C799.193 800.091 787.416 823.827 768.149 845.269C753.47 861.605 739.595 870.171 722.127 882.661C715.648 887.294 704.752 900.791 698.359 906.904C680.763 923.729 660.51 935.212 637.913 944.123C628.404 947.904 618.374 949.95 608.439 951.757C603.336 952.685 591.677 954.274 587.484 956.04C580.989 959.001 575.01 962.75 568.553 965.86C530.098 984.375 484.069 986.555 443.861 972.563C442.164 971.973 438.848 970.786 437.12 970.851C429.378 971.14 417.443 973.028 410.019 973.343C371.375 974.982 334.264 965.372 301.078 945.666C297.077 943.29 291.839 939.273 287.703 937.556C281.586 935.015 273.615 934.144 267.093 932.349C231.429 922.534 199.055 905.656 172.111 880.082C164.631 872.981 158.067 865.141 150.778 857.874C147.8 855.121 143.917 853.489 140.724 851.054C99.8441 819.878 73.3781 774.029 61.5446 724.432C60.5172 720.126 59.7837 711.961 58.0523 708.501C54.6359 701.675 48.2888 693.694 44.1274 687.203C36.6632 675.595 30.0277 663.475 24.2703 650.932C7.70941 615.395 0.742908 575.707 1.78901 536.546C0.966608 527.241 5.74631 511.349 4.88281 502.812C2.82271 482.445 2.43061 467.757 4.72521 447.361C9.38591 405.933 27.1668 371.016 51.8604 337.978C54.1924 334.858 54.6677 319.771 55.8289 315.442C57.8925 304.958 59.6334 294.413 62.7891 284.135C72.0491 253.302 88.3041 225.023 110.286 201.5C121.478 189.584 130.294 186.699 137.796 170.917C139.896 166.498 152.292 152.137 155.938 148.303C180.606 122.362 214.697 106.737 248.848 97.7196C252.526 96.7416 259.785 89.5626 263.624 87.0416C272.288 81.3496 281.486 75.8316 291.046 71.6441C314.136 61.3079 339.124 55.8865 364.422 55.7243C369.935 55.6417 388.192 56.8721 391.638 55.8381C412.892 49.4599 431.139 45.6235 453.582 44.8178ZM421.66 248.139C413.183 246.245 404.529 245.119 395.975 243.642C379.943 240.876 364.548 238.677 348.226 237.927C343.722 234.411 341.933 231.756 346.501 227.252C349.271 224.521 353.897 225.242 357.485 225.329C373.371 226.548 388.934 229.34 404.694 231.347C408.322 231.809 412.707 233.305 416.019 233.473C400.321 226.972 381.368 219.459 364.719 215.853C318.934 205.936 268.007 213.249 225.208 231.627C195.28 244.874 170.735 266.193 141.79 281.333C127.531 288.791 106.647 303.775 94.7611 314.284C59.9206 345.089 31.3781 386.784 22.1166 432.831C21.3971 436.409 20.3905 439.866 19.9727 443.554L18.4898 452.417C20.5479 448.686 21.435 445.316 23.4925 441.482C39.4972 404.306 63.6371 371.552 93.8871 344.4C97.3571 341.529 112.471 326.423 116.811 329.207C127.209 335.879 116.245 343.865 110.672 348.517C40.5371 407.054 1.44691 502.61 20.8388 593.191C25.8472 616.585 33.1585 636.121 43.9851 657.973C41.9168 645.022 38.1803 633.007 36.3009 619.336C26.2991 548.818 38.2058 477.803 80.6661 419.264C113.835 373.558 161.733 343.91 213.447 323.306C242.015 311.923 271.015 303.457 300.351 294.248C323.371 287.022 339.613 278.307 359.939 265.483C345.066 265.53 328.683 265.147 313.817 266.514C264.646 271.034 214.095 284.506 170.656 308.225C166.537 310.474 158.119 315.745 154.398 311.086C150.831 307.537 150.65 303.022 155.463 300.231C205.823 271.027 264.357 255.23 322.311 251.593C354.501 249.573 389.982 253.5 421.66 248.139ZM74.8401 297.546C80.3391 290.858 84.5051 280.46 89.1791 272.946C127.222 211.79 191.192 176.476 261.926 167.862C295.335 164.091 329.148 166.269 361.798 174.294C365.359 175.14 388.312 178.779 380.686 188.462C375.813 194.65 359.377 186.791 353.232 186.37C278.601 172.215 204.301 183.768 143.993 231.631C127.204 245.949 113.932 261.743 102.04 280.264C98.7171 285.44 95.9881 291.885 92.6431 296.558L92.8661 296.878C105.968 286.276 119.828 276.646 134.334 268.064C140.736 264.315 147.555 261.282 153.846 257.352C167.832 248.613 180.701 238.308 195.066 230.037C237.227 205.763 292.133 192.301 340.776 197.146C378.63 200.916 414.616 214.765 447.749 232.972C459.399 239.373 470.387 246.915 482.422 252.664C493.615 258.011 505.348 262.853 517.203 266.552C522.723 268.275 528.388 269.462 533.894 271.173C521.629 255.927 508.437 240.2 494.325 226.653C447.166 180.883 386.16 152.036 320.856 144.627C306.877 143.245 292.813 142.917 278.785 143.647C221.472 147.089 158.155 170.945 118.704 214.27C93.2541 242.22 85.2131 262.158 74.8401 297.546ZM224.791 374.543C215.422 381.769 204.948 387.585 196.041 395.361C183.937 405.927 173.236 418.212 162.575 430.195C115.144 483.511 80.8681 541.963 71.5321 613.866C64.7251 666.294 69.5881 724.319 94.1851 771.936C100.657 784.464 108.714 795.953 117.312 807.09C118.769 808.978 120.177 810.807 121.892 812.473L122.288 812.223C89.8091 749.785 81.8661 677.819 94.3621 608.906C96.4401 597.6 104.896 556.459 113.074 551.051C114.363 550.199 115.87 549.745 117.394 550.262C119.066 550.829 120.545 552.491 121.2 554.092C121.951 555.928 121.985 557.978 121.583 559.899C119.962 567.636 116.472 575.224 114.371 582.904C109.267 601.816 105.723 621.115 103.772 640.607C96.3531 716.265 117.891 794.38 167.349 852.66C185.654 874.23 207.27 892.51 233.081 904.496C234.797 905.301 236.548 906.029 238.329 906.68C179.348 864.82 139.201 801.444 126.558 730.238C117.127 675.276 122.209 618.804 141.302 566.408C149.038 545.3 158.503 524.866 169.599 505.313C182.696 482.362 199.028 461.484 212.962 439.085C223.777 421.7 233.346 402.594 239.998 383.227C240.902 380.594 243.911 373.751 243.21 371.334C237.278 382.719 228.211 392.782 220.51 402.995C199.608 430.716 176.423 457.204 157.447 486.318C154.285 491.169 151.115 496.087 148.314 501.158C146.88 503.755 145.957 506.867 144.188 509.241C143.017 510.813 141.475 512.139 139.581 512.728C137.984 513.225 136.278 513.207 134.792 512.382C133.506 511.666 132.708 510.517 132.323 509.111C130.42 502.147 142.137 485.32 145.871 479.349C162.031 453.508 181.876 429.413 200.576 405.333C208.345 395.329 216.035 383.566 224.791 374.543ZM55.2625 639.564C55.2884 611.477 62.7021 578.845 71.4941 552.144C74.1091 544.201 77.3161 536.478 80.0491 528.579C86.6051 509.63 90.4851 495.779 100.264 477.784C109.641 460.531 127.042 436.979 140.904 423.091C158.576 405.384 178.448 389.223 198.753 374.622C224.327 356.233 248.014 341.307 271.178 319.457L270.669 318.818C270.508 318.902 270.349 318.989 270.187 319.07C262.486 322.935 252.925 324.534 244.712 327.16C234.983 330.271 225.487 334.216 216.041 338.092C146.698 366.541 87.5641 410.691 62.2661 483.964C45.5524 531.384 42.3958 582.526 53.1507 631.641L55.2625 639.564ZM728.316 401.441C730.167 400.004 730.022 400.547 730.735 398.663C730.051 394.039 720.711 380.078 718.49 373.681C704.736 334.052 707.313 292.257 702.215 251.161C699.464 228.987 695.424 213.922 686.974 193.458C672.731 158.962 653.898 127.711 623.666 104.848C611.461 95.5716 597.909 89.3896 583.399 84.9316C580.052 83.9036 574.719 81.8656 571.389 81.5006C627.147 121.73 666.577 192.644 677.433 260.001C679.085 270.02 680.123 280.131 680.542 290.276C681.087 303.696 680.897 317.36 682.187 330.767C684.065 350.286 697.906 417.086 728.316 401.441ZM561.049 754.165C569.025 753.3 577.124 753.815 585.066 752.748C654.801 746.283 717.681 717.238 762.812 662.674C768.436 655.874 781.335 640.235 780.386 631.544C779.941 627.477 777.274 624.052 774.092 621.641C769.045 617.817 762.948 617.932 756.951 618.465C755.274 619.029 753.84 619.646 752.48 620.806C748.753 623.984 745.749 628.335 742.672 632.142C738.153 637.735 733.598 643.317 728.637 648.527C719.51 658.112 708.678 666.468 698.203 674.503C687.714 682.549 674.408 691.342 662.679 697.431C652.801 702.487 642.836 707.373 632.789 712.087C610.13 722.547 577.74 735.573 561.049 754.165ZM618.984 700.889C623.323 699.933 626.965 698.766 630.993 696.884C664.564 682.704 703.166 657.849 726.961 630.275C730.537 626.131 735.041 621.383 737.198 616.36C737.801 614.956 737.851 613.821 737.226 612.384C735.538 608.499 731.518 604.882 727.607 603.425C725.612 602.683 723.68 602.515 721.572 602.694C715.216 606.782 711.969 612.528 707.315 618.288C704.164 622.141 700.765 625.783 697.138 629.192C679.49 645.518 657.847 656.727 640.445 673.736C636.022 678.058 631.589 682.642 628.018 687.699C624.969 692.017 622.329 696.818 618.984 700.889ZM212.957 866.631C218.087 871.364 223.276 876.049 228.254 880.941C217.752 864.502 206.805 849.181 198.114 831.582C170.948 776.576 158.509 705.813 162.318 644.659C163.716 622.217 167.604 599.094 172.45 577.135C175.399 563.77 199.566 493.718 197.908 487.906C189.653 501.832 180.554 514.889 173.17 529.407C139.188 596.225 125.782 671.188 144.601 744.546C153.883 780.725 168.635 813.968 192.128 843.221C198.731 851.444 205.89 858.848 212.957 866.631ZM673.754 403.341C680.765 404.359 686.351 404.26 693.291 402.843C689.511 399.285 686.068 393.13 683.763 388.48C672.195 364.897 667.282 337.87 667.5 311.693C667.637 295.149 666.096 281.274 663.791 264.992C649.76 165.872 566.625 55.7836 457.443 59.2689C455.159 59.3471 452.875 59.4517 450.593 59.5827C443.647 59.9756 436.743 61.0994 429.843 62.0536C441.631 64.8216 456.623 71.3424 467.975 75.7896C541.474 104.586 615.6 176.263 633.515 255.065C636.905 270.502 639.505 286.101 641.304 301.802C642.518 312.781 642.535 324.493 643.687 335.235C645.711 354.109 653.141 397.014 673.754 403.341ZM808.121 370.961C817.207 360.942 822.293 349.914 821.662 336.169C820.637 313.835 809.32 290.993 796.887 272.894C795.025 270.184 793.36 267.297 791.22 264.798C797.906 297.625 800.51 327.21 796.075 360.604C795.22 367.041 794.445 373.51 792.997 379.847C798.618 377.616 803.57 374.988 808.121 370.961ZM686.805 898.737C672.689 903.33 658.263 908.152 643.648 910.814C583.44 921.782 507.253 910.63 452.746 882.732C405.333 858.464 374.937 828.301 346.082 784.21C335.109 767.443 324.91 749.915 312.608 734.077C306.391 726.073 299.327 718.234 291.627 711.632C286.651 707.366 280.01 703.327 275.912 698.288C276.237 705.31 278.153 716.661 281.472 722.877C285.037 729.554 291.666 735.672 296.537 741.523C301.236 747.166 305.633 753.238 309.786 759.294C336.421 798.144 354.953 844.319 390.307 876.523C439.778 921.381 504.932 944.948 571.657 942.119C577.441 941.871 583.262 940.992 588.997 940.238C618.186 936.398 644.983 927.827 669.429 911.152C675.1 906.957 680.772 902.391 686.805 898.737ZM772.22 386.942C788.906 361.35 785.797 310.277 779.713 281.154C776.726 266.856 773.252 258.16 768.874 245.161C755.86 206.531 735.871 175.605 700.73 153.664C696.34 150.923 681.633 142.762 677.159 142.152C685.805 154.597 691.72 168.945 697.777 182.743C699.991 187.788 703.143 198.88 705.899 203.141C712.723 213.69 719.696 222.217 725.737 233.531C744.346 268.079 754.034 306.725 753.922 345.965C753.956 356.69 753.318 367.362 751.637 377.981C751.096 381.398 749.111 389.123 749.169 392.112C753.962 398.906 767.511 391.562 772.22 386.942ZM350.845 852.658C343.65 841.915 336.233 831.039 329.786 819.841C317.829 799.07 305.721 772.953 289.162 755.66C294.848 773.453 301.702 798.688 312.581 813.772C318.225 821.597 325.441 828.272 331.939 835.37C334.242 837.885 347.714 851.237 350.45 852.52C350.576 852.58 350.713 852.612 350.845 852.658ZM691.334 600.784C685.392 602.351 681.166 608.238 678.234 613.349C676.574 616.243 669.292 629.396 669.772 632.237C669.794 632.365 669.851 632.485 669.89 632.609C671.438 632.589 673.036 631.111 674.12 630.015C674.318 629.814 674.511 629.609 674.707 629.407C680.588 623.808 698.363 611.87 699.364 603.607C698.972 602.449 698.769 601.871 697.612 601.312C695.826 600.448 693.276 600.723 691.334 600.784ZM348.375 760.627C358.969 777.144 368.941 793.821 381.489 808.995C408.698 841.896 441.212 863.692 480.706 879.383C495.087 885.184 509.904 889.837 525.02 893.298C592.27 907.994 664.418 902.082 723.332 864.185C744.529 850.55 761.653 832.348 775.089 811.098C778.669 805.437 781.561 799.375 785.173 793.737C777.663 801.695 770.683 810.128 762.993 817.935C753.403 827.67 743.142 835.92 732.121 843.952C722.802 850.034 681.444 874.509 671.603 872.721C669.892 872.411 668.485 871.425 667.531 869.982C666.758 868.812 666.339 867.548 666.633 866.137C667.125 863.77 669.328 862.16 671.312 861.055C677.969 857.349 685.763 855.226 692.688 851.949C712.455 842.592 732.297 828.86 747.874 813.538L747.887 813.088C746.64 813.266 734.169 820.729 731.702 821.948C718.237 828.598 703.952 834.442 689.736 839.287C631.281 859.21 567.911 865.927 507.748 849.163C501.446 847.406 495.304 844.943 489.14 842.747C463.001 833.436 439.785 821.13 417.514 804.487C393.803 786.768 377.036 771.18 348.375 760.627ZM549.322 956.445C504.906 955.014 458.008 940.002 420.057 917.013C402.339 906.28 385.817 893.55 369.286 881.109C360.732 874.671 351.881 868.543 343.478 861.922C339.953 859.145 320.8 841.76 319.718 841.466C319.749 841.619 319.782 841.773 319.811 841.927C320.139 843.658 320.252 844.991 319.19 846.52C318.49 847.527 317.242 848.41 315.991 848.512C314.593 848.626 313.488 848.276 312.471 847.315C311.269 846.182 310.901 844.813 310.955 843.204C311.005 841.723 311.386 840.44 312.466 839.397L315.772 838.388C315.632 837.517 315.836 837.822 315.112 837.277C312.293 835.157 307.203 835.495 304.72 832.876C299.554 827.427 294.919 814.76 292.005 807.493C284.773 789.464 278.662 771.454 273.413 752.755C263.518 717.5 258.264 681.271 241.478 648.267C239.262 643.91 236.727 638.354 233.325 634.861C234.802 700.958 264.125 782.563 299.808 838.16C314.206 860.791 331.26 881.62 350.604 900.203C357.697 907.056 365.684 913.382 373.556 919.31C410.284 946.969 454.534 967.765 501.379 966.665C514.589 966.355 539.918 963.645 550.856 956.887L551.019 956.52L549.322 956.445ZM716.545 247.711C718.511 256.607 718.37 266.713 718.948 275.823C720.975 307.737 720.946 339.306 732.245 369.791C733.095 372.084 735.071 378.846 736.834 380.151C737.131 378.881 737.282 377.758 737.353 376.455C743.254 338.525 738.862 299.707 724.637 264.053C722.493 258.732 719.689 253.969 717.283 248.816C716.898 247.992 717.124 248.324 716.545 247.711ZM439.157 802.141C447.193 807.409 455.284 812.332 463.94 816.529C531.298 850.327 605.224 852.056 676.294 828.582C728.068 811.481 775.706 785.416 811.414 743.457C820.039 733.321 827.93 723.052 833.972 711.125C837.268 704.619 840.81 695.224 838.142 688.001C837.323 685.784 835.282 682.569 833.071 681.56C832.468 681.285 832.221 681.222 831.626 681.029C823.368 694.17 815.031 706.632 804.526 718.153C771.311 754.583 726.596 781.585 680.167 797.388C672.495 799.999 664.804 802.738 656.894 804.548C629.193 810.886 599.622 815.217 571.187 814.099C552.848 813.378 534.523 810.742 516.334 808.445C490.6 805.195 465.129 802.257 439.157 802.141ZM299.56 104.613C262.583 107.532 222.698 117.848 191.21 138.316C182.489 143.984 175.263 152.264 167.16 158.147C260.654 114.691 357.141 119.345 446.099 171.67C462.788 181.486 487.453 200.086 501.135 213.815C512.261 224.692 520.581 233.112 530.63 244.796C543.298 259.523 563.303 284.44 578.886 295.351C550.747 222.146 509.599 165.573 435.91 132.801C398.126 115.998 356.104 104.678 314.486 104.26C311.283 104.228 302.457 104.233 299.56 104.613ZM792.719 645.016C786.746 652.414 781.474 660.384 775.687 667.932C770.017 675.233 763.944 682.213 757.499 688.84C716.112 732.18 657.05 759.18 597.793 765.543C581.325 767.312 565.059 768.416 548.485 768.435C538.317 768.446 528.192 767.662 518.035 767.6C497.637 767.476 476.546 769.551 456.92 775.234C446.447 778.266 436.845 782.951 426.863 787.183C446.184 787.529 465.391 787.918 484.615 790.12C516.908 793.819 548.928 799.995 581.567 799.745C605.956 799.559 630.014 795.604 653.75 790.281C719.977 774.063 784.144 733.096 819.582 673.903C822.183 669.559 824.172 664.477 822.96 659.36C822.073 655.614 820.199 653.638 817.193 651.426C796.274 688.961 766.014 720.457 729.344 742.864C725.437 745.272 714.985 752.034 711.374 753.052C709.302 753.636 707.4 753.631 705.499 752.532C704.354 751.87 703.456 751.03 703.187 749.674C702.776 747.599 704.123 745.593 705.452 744.135C708.463 740.833 715.823 737.945 719.928 735.391C726.075 731.56 732.115 727.561 738.043 723.4C762.636 706.033 782.401 683.475 798.893 658.502C800.71 655.751 805.09 650.535 805.716 647.501C804.826 646.125 803.43 645.81 801.897 645.516C798.892 644.938 795.766 645.027 792.719 645.016ZM226.279 806.708C222.082 798.417 206.559 762.563 208.939 755.475C209.355 754.236 210.424 753.298 211.598 752.751C213.362 751.919 215.393 751.861 217.201 752.592C219.747 753.611 220.796 756.317 221.708 758.7C227.589 774.078 232.627 789.738 239.982 804.536C264.801 854.469 302.708 899.019 352.418 925.465C357.015 927.911 362.14 931.422 366.911 933.349C367.381 933.539 367.505 933.541 367.945 933.614C367.593 932.024 360.016 927.276 358.432 925.95C347.903 917.135 337.582 907.509 328.054 897.606C296.537 864.85 271.562 822.291 254.017 780.52C238.487 743.545 225.613 705.245 221.331 665.196C219.948 652.266 218.876 639.053 218.426 626.056C217.257 592.28 217.772 560.179 205.039 528.131C204.482 527.85 203.908 527.51 203.322 527.301C200.445 530.538 197.416 543.179 195.867 548.017C180.191 596.967 173.926 644.037 176.941 695.382C177.766 709.442 180.106 723.811 182.712 737.635C185.173 750.686 187.97 764.096 191.803 776.83C206.463 825.522 234.154 872.86 272.355 906.723C299.107 930.438 330.987 948.769 366.333 955.787C374.264 957.362 382.488 957.639 390.513 958.706C390.383 958.622 390.255 958.536 390.123 958.455C386.299 956.107 381.381 954.913 377.193 953.275C368.277 949.789 359.084 946.13 350.718 941.442C298.332 912.09 250.198 862.171 226.279 806.708ZM358.728 70.1567C341.614 71.0335 324.962 74.0135 308.929 80.2606C301.393 83.1976 294.246 87.1246 286.876 90.4436C287.865 91.1676 288.189 91.3276 289.532 91.1956C303.652 89.8106 318.544 89.3766 332.729 90.6586C359.298 93.2436 385.491 98.8216 410.808 107.287C500.85 137.468 554.007 195.799 589.466 282.186C597.187 300.995 604.077 320.279 611.941 338.942C617.556 352.432 624.785 367.192 634.869 378.019C636.9 380.2 638.712 382.262 640.481 384.66L640.13 383.923C631.222 365.004 630.136 338.384 628.386 317.775C627.636 308.946 626.553 300.373 625.628 291.618C617.229 212.166 566.131 145.041 497.9 106.006C457.857 83.1566 405.156 67.2483 358.728 70.1567Z" fill="#EA3B3B"/>
<path d="M318.509 225.321C321.296 225.095 325.789 224.412 328.156 226.197C329.31 227.068 329.877 228.161 330.073 229.572C330.374 231.739 329.788 234.232 328.308 235.883C326.05 238.4 320.435 237.821 317.31 237.894C309.41 238.126 301.536 238.896 293.74 240.198C286.715 241.416 279.602 243.111 272.497 243.716C270.234 244.023 267.949 244.147 265.672 244.312C264.972 243.779 264.266 243.249 263.596 242.68C262.356 241.627 261.095 240.215 261.149 238.459C261.193 237.028 261.712 235.876 262.701 234.847C269.219 228.064 307.515 225.716 318.509 225.321Z" fill="#EA3B3B"/>
<path d="M259.887 283.979C261.826 283.816 264.823 283.398 266.636 284.17C267.743 284.642 268.767 285.385 269.175 286.576C269.601 287.815 269.273 289.153 268.702 290.279C268.024 291.616 267.004 292.682 265.658 293.352C261.695 295.326 255.586 295.972 251.266 297.268C244.075 299.425 237.124 302.35 229.932 304.537C228.112 305.058 225.471 305.508 223.636 304.892C222.394 304.475 221.602 303.593 221.145 302.398C220.74 301.34 220.828 300.245 221.306 299.233C224.389 292.705 252.386 286.442 259.887 283.979Z" fill="#EA3B3B"/>
<path d="M132.672 314.809C134.192 314.711 135.888 314.563 137.39 314.869C138.956 315.189 140.437 316.405 141.248 317.755C141.942 318.909 142.139 320.162 141.787 321.477C141.099 324.044 139.379 325.369 137.171 326.632C136.25 326.712 135.323 326.708 134.402 326.621C132.625 326.449 131.005 325.531 129.943 324.096C128.963 322.798 128.545 321.193 128.896 319.592C129.4 317.297 130.772 316.033 132.672 314.809Z" fill="#EA3B3B"/>
<path d="M241.068 238.122C242.143 238.144 243.286 238.271 244.291 238.681C245.838 239.311 247.133 240.436 247.73 242.016C248.321 243.579 248.174 245.195 247.502 246.704C246.468 249.027 245.097 249.897 242.807 250.847C242.506 250.816 242.204 250.791 241.903 250.753C240.022 250.512 237.944 249.403 236.882 247.794C236.107 246.621 235.939 245.176 236.215 243.815C236.805 240.909 238.685 239.603 241.068 238.122Z" fill="#EA3B3B"/>
<path d="M281.097 279.279C282.309 279.143 283.669 279.002 284.884 279.178C286.454 279.406 288.118 280.641 288.916 281.991C289.458 282.907 289.549 283.88 289.253 284.891C288.847 286.273 287.968 287.513 286.756 288.266C284.188 288.514 281.891 289 279.78 287.105C279.056 286.456 278.624 285.582 278.582 284.62C278.497 282.646 279.849 280.687 281.097 279.279Z" fill="#EA3B3B"/>
<path d="M204.778 303.313C206.414 302.489 208.376 302.664 209.842 303.763C211.307 304.863 212.023 306.698 211.689 308.499C211.355 310.3 210.029 311.757 208.267 312.258C205.875 312.939 203.357 311.689 202.453 309.372C201.549 307.055 202.556 304.431 204.778 303.313Z" fill="#EA3B3B"/>
<path d="M218.213 247.947C219.265 247.871 220.114 247.901 221.152 248.089C222.073 248.913 222.594 249.59 222.944 250.769C223.374 252.22 222.992 254.192 222.064 255.397C221.053 256.712 220.201 256.623 218.693 256.904C217.895 256.735 216.946 256.592 216.201 256.262C215.027 255.741 214.228 254.862 213.821 253.637C213.389 252.339 213.667 251.156 214.38 250.043C215.319 248.574 216.6 248.308 218.213 247.947Z" fill="#EA3B3B"/>
<path d="M184.19 214.429C186.079 215.052 188.593 215.692 189.851 217.343C190.619 218.349 190.827 219.553 190.54 220.783C190.124 222.568 189.006 223.619 187.635 224.736C184.214 227.523 179.858 229.536 176.037 231.762C170.407 235.041 164.723 238.605 159.517 242.522C154.332 246.423 149.764 251.899 144.207 255.179C141.825 254.81 139.768 254.371 138.012 252.631C137.537 251.308 137.324 250.695 137.877 249.349C141.05 241.633 175.829 218.085 184.19 214.429Z" fill="#EA3B3B"/>
<path d="M398.304 186.455C402.076 186.207 407.434 188.94 410.958 190.403C411.901 192.603 413.309 195.34 412.512 197.773C411.941 199.516 410.457 200.291 408.883 200.929C407.478 200.889 405.962 200.891 404.589 200.564C401.251 199.769 395.465 197.347 393.832 194.229C393.247 193.112 393 192.033 393.434 190.806C394.204 188.631 396.439 187.541 398.304 186.455Z" fill="#EA3B3B"/>
<path d="M430.274 200.34C433.392 199.433 436.677 201.113 437.768 204.172C438.859 207.23 437.378 210.608 434.39 211.879C432.292 212.772 429.872 212.429 428.105 210.987C426.339 209.545 425.518 207.242 425.973 205.008C426.428 202.774 428.084 200.976 430.274 200.34Z" fill="#EA3B3B"/>
<path d="M204.328 204.138C204.789 204.078 205.03 204.024 205.527 204.074C207.19 204.239 208.988 205.435 210.089 206.643C211.589 208.289 211.728 209.916 211.527 212.036C210.709 213.7 209.645 214.311 208.108 215.288C206.786 215.411 205.058 215.73 203.771 215.36C202.592 215.02 201.25 213.881 200.599 212.859C199.788 211.586 199.694 210.111 200.03 208.667C200.61 206.177 202.31 205.387 204.328 204.138Z" fill="#EA3B3B"/>
<path d="M455.874 214.869C456.217 214.844 456.56 214.826 456.903 214.815C459.131 214.751 461.309 215.23 462.895 216.911C463.997 218.081 464.415 219.429 464.24 221.018C464.023 222.987 462.487 224.633 461.053 225.836C458.505 225.835 455.856 225.964 453.883 224.099C452.887 223.158 452.207 222.057 452.268 220.633C452.378 218.036 454.024 216.46 455.874 214.869Z" fill="#EA3B3B"/>
<path d="M225.112 197.211C226.252 197.077 227.706 196.785 228.726 197.451C229.805 198.156 230.451 199.108 230.653 200.382C231.094 203.167 229.643 205.145 227.958 207.149C225.998 206.54 223.325 205.496 222.205 203.675C221.565 202.635 221.297 201.44 221.743 200.262C222.342 198.679 223.728 198.021 225.112 197.211Z" fill="#EA3B3B"/>
<path d="M126.398 524.097C127.238 524.037 127.968 523.993 128.784 524.276C130.316 524.807 131.726 526.061 132.423 527.522C133.253 529.262 133.236 531.489 132.535 533.267C131.713 535.353 129.981 536.813 128.005 537.744C125.863 537.106 122.961 536.386 121.434 534.671C119.397 532.381 120.112 528.986 120.33 526.197C122.471 525.657 124.39 525.018 126.398 524.097Z" fill="#EA3B3B"/>
<path d="M194.855 638.658C196.574 638.568 199.177 638.163 200.593 639.434C202.154 640.836 202.589 644.27 202.802 646.279C203.925 656.83 202.931 667.652 203.869 678.244C204.61 686.62 207.9 697.563 207.634 705.349C207.55 707.822 205.474 709.541 203.836 711.132C203.009 711.24 202.236 711.346 201.404 711.222C199.705 710.971 198.228 710.133 197.213 708.732C192.221 701.835 190.336 653.495 191.678 644.317C192.09 641.495 192.562 640.363 194.855 638.658Z" fill="#EA3B3B"/>
<path d="M206.266 725.496C209.677 724.736 213.07 726.841 213.905 730.233C214.74 733.626 212.712 737.064 209.338 737.975C207.088 738.583 204.685 737.925 203.058 736.255C201.432 734.586 200.836 732.167 201.502 729.934C202.168 727.7 203.991 726.002 206.266 725.496Z" fill="#EA3B3B"/>
<path d="M195.972 615.091C198.176 615.439 200.74 616.603 202.107 618.437C202.935 619.547 203.197 621.006 202.899 622.351C202.339 624.878 200.245 626.006 198.201 627.274C196.587 627.211 194.458 626.531 193.306 625.323C192.345 624.314 191.937 623.207 191.978 621.834C192.074 618.638 193.747 617.106 195.972 615.091Z" fill="#EA3B3B"/>
<path d="M197.083 595.396C198.681 595.515 200.381 596.193 201.597 597.253C202.666 598.183 203.223 599.375 203.236 600.795C203.257 603.117 201.86 604.61 200.356 606.201C198.643 605.994 196.733 605.585 195.353 604.467C194.267 603.587 193.918 602.287 193.935 600.943C193.964 598.713 195.668 596.916 197.083 595.396Z" fill="#EA3B3B"/>
<path d="M199.751 576.645C200.624 576.747 201.595 576.97 202.368 577.414C203.578 578.109 203.779 578.88 204.183 580.143C203.734 583.323 202.324 584.535 200.027 586.563C199.462 586.026 198.907 585.477 198.339 584.943C197.802 584.437 197.124 583.92 196.716 583.3C196.049 582.288 195.828 581.041 196.228 579.881C196.765 578.328 198.443 577.451 199.751 576.645Z" fill="#EA3B3B"/>
<path d="M200.812 559.556C202.306 560.247 204.009 560.988 204.415 562.78C204.866 564.767 203.521 566.357 202.45 567.855C201.601 567.386 200.7 566.916 199.929 566.325C198.843 565.49 198.552 564.477 198.402 563.162C198.889 561.509 199.598 560.755 200.812 559.556Z" fill="#EA3B3B"/>
<path d="M481.35 114.48C481.988 114.458 482.652 114.42 483.291 114.482C494.253 115.535 536.098 150.49 543.374 159.526C544.466 160.882 545.22 162.436 544.935 164.214C544.584 166.406 543.169 167.916 541.485 169.216C535.899 168.634 527.042 159.518 522.448 155.537C514.745 148.778 506.773 142.332 498.55 136.216C492.29 131.623 485.612 128.63 479.295 124.323C474.76 121.231 478.56 116.813 481.35 114.48Z" fill="#EA3B3B"/>
<path d="M576.177 206.262C577.129 206.225 578.201 206.149 579.12 206.438C582.355 207.453 585.341 212.585 586.985 215.365C590.367 221.085 604.385 246.624 602.661 252.091C602.056 254.012 600.532 255.16 598.81 256.005C597.801 255.968 596.762 255.942 595.77 255.736C593.866 255.341 592.885 254.445 591.925 252.804C588.122 246.301 585.248 239.012 581.751 232.303C578.734 226.517 574.028 220.283 571.955 214.163C571.528 212.902 571.593 211.326 571.979 210.055C572.612 207.972 574.4 207.233 576.177 206.262Z" fill="#EA3B3B"/>
<path d="M557.599 179.848C560.953 178.967 564.395 180.934 565.337 184.271C566.279 187.608 564.374 191.085 561.054 192.087C558.852 192.751 556.463 192.176 554.806 190.582C553.148 188.987 552.481 186.623 553.06 184.397C553.639 182.172 555.375 180.432 557.599 179.848Z" fill="#EA3B3B"/>
<path d="M457.72 101.851C466.395 101.139 468.462 110.289 461.081 113.558C451.304 113.311 449.282 105.042 457.72 101.851Z" fill="#EA3B3B"/>
<path d="M603.482 266.442C605.483 265.726 607.717 266.177 609.284 267.612C610.852 269.048 611.496 271.233 610.959 273.289C610.421 275.345 608.79 276.936 606.72 277.42C603.76 278.114 600.773 276.376 599.913 273.461C599.053 270.545 600.619 267.466 603.482 266.442Z" fill="#EA3B3B"/>
<path d="M432.514 92.5146C434.248 91.5056 436.394 91.5146 438.12 92.5386C439.846 93.5626 440.882 95.4416 440.827 97.4476C440.771 99.4536 439.634 101.273 437.854 102.2C435.189 103.589 431.903 102.597 430.452 99.9656C429.002 97.3346 429.917 94.0266 432.514 92.5146Z" fill="#EA3B3B"/>
<path d="M609.854 287.415C611.444 287.421 613.165 287.271 614.513 288.266C615.58 289.052 616.114 290.03 616.266 291.335C616.588 294.088 614.766 296.304 612.999 298.134C610.743 297.602 609.269 297.158 607.892 295.208C606.996 293.94 606.457 292.404 606.831 290.843C607.281 288.961 608.329 288.337 609.854 287.415Z" fill="#EA3B3B"/>
<path d="M408.732 86.2436C408.919 86.2366 409.106 86.2295 409.293 86.2225L410.217 86.2065C413.464 86.1335 415.68 86.1225 416.557 89.7625C416.038 91.8725 416.067 92.3555 414.737 93.9705C408.186 94.7425 404.956 92.7086 408.732 86.2436Z" fill="#EA3B3B"/>
<path d="M615.661 307.844C617.729 307.353 619.809 308.611 620.335 310.671C620.86 312.731 619.636 314.831 617.585 315.39C616.228 315.761 614.776 315.37 613.788 314.369C612.799 313.367 612.428 311.911 612.816 310.559C613.204 309.206 614.292 308.169 615.661 307.844Z" fill="#EA3B3B"/>
<path d="M490.77 859.657C500.394 859.203 512.118 865.392 521.592 867.733C535.209 871.097 549.813 873.634 563.783 874.813C571.57 875.47 579.73 876 587.531 875.829C592.933 875.711 621.88 873.505 623.307 874.117C624.48 874.62 625.688 876.248 626.24 877.36C626.961 878.81 627.101 880.388 626.538 881.919C625.897 883.666 624.764 884.446 623.166 885.261C605.665 889.014 569.443 888.648 551.771 885.849C541.461 884.216 492.62 874.341 487.721 866.272C487.081 865.217 486.918 863.89 487.384 862.73C488.007 861.176 489.405 860.48 490.77 859.657Z" fill="#EA3B3B"/>
<path d="M644.101 869.113C646.132 868.173 648.512 868.397 650.332 869.698C652.153 871 653.134 873.179 652.901 875.404C652.668 877.63 651.257 879.559 649.207 880.455C646.083 881.821 642.441 880.418 641.042 877.31C639.643 874.201 641.007 870.545 644.101 869.113Z" fill="#EA3B3B"/>
<path d="M469.293 850.903C469.87 850.797 469.975 850.747 470.636 850.793C472.316 850.91 474.355 852.064 475.338 853.417C476.24 854.658 476.556 856.288 476.247 857.787C475.857 859.68 474.518 860.456 473.026 861.48C472.025 861.529 471.002 861.579 470.008 861.42C468.35 861.155 466.866 860.399 465.939 858.957C465.22 857.838 465.066 856.616 465.366 855.331C465.928 852.92 467.308 852.153 469.293 850.903Z" fill="#EA3B3B"/>
<path d="M469.404 853.769C470.431 853.273 471.646 853.372 472.578 854.029C473.51 854.686 474.012 855.798 473.89 856.931C473.767 858.064 473.039 859.043 471.988 859.485C470.42 860.146 468.611 859.436 467.91 857.886C467.21 856.336 467.872 854.51 469.404 853.769Z" fill="#EA3B3B"/>
<path d="M449.33 840.81C451.329 840.908 453.16 841.113 454.722 842.493C455.622 843.287 456.261 844.433 456.216 845.662C456.137 847.765 454.552 848.926 453.022 850.089C450.889 850.019 448.513 849.79 446.935 848.17C446.217 847.432 445.893 846.455 445.983 845.446C446.177 843.283 447.742 842.074 449.33 840.81Z" fill="#EA3B3B"/>
<path d="M431.106 830.295C433.281 829.513 435.685 830.588 436.551 832.731C437.418 834.873 436.437 837.317 434.329 838.266C432.891 838.913 431.214 838.722 429.959 837.768C428.703 836.814 428.07 835.249 428.31 833.69C428.549 832.132 429.622 830.829 431.106 830.295Z" fill="#651616"/>
<path d="M650.93 287.497C652.895 286.901 655.028 287.449 656.461 288.919C657.894 290.389 658.388 292.536 657.741 294.484C657.094 296.432 655.414 297.857 653.386 298.178C650.534 298.63 647.819 296.797 647.173 293.984C646.526 291.17 648.167 288.336 650.93 287.497Z" fill="#EA3B3B"/>
<path d="M652.076 309.159C653.877 309.123 655.894 308.912 657.5 309.877C658.791 310.653 659.622 311.842 659.839 313.341C660.183 315.714 658.386 318.097 656.942 319.764C654.318 319.624 651.991 319.263 650.132 317.204C649.193 316.164 648.773 314.907 648.955 313.511C649.224 311.453 650.555 310.404 652.076 309.159Z" fill="#EA3B3B"/>
<path d="M647.694 266.899C650.31 265.772 653.346 266.95 654.518 269.546C655.69 272.142 654.564 275.197 651.988 276.414C650.282 277.219 648.274 277.041 646.736 275.949C645.198 274.857 644.369 273.02 644.567 271.144C644.765 269.268 645.961 267.645 647.694 266.899Z" fill="#EA3B3B"/>
<path d="M644.423 245.85C647.141 245.269 649.824 246.975 650.451 249.683C651.079 252.39 649.421 255.102 646.724 255.776C644.937 256.223 643.048 255.672 641.783 254.333C640.517 252.995 640.073 251.078 640.62 249.319C641.168 247.561 642.621 246.234 644.423 245.85Z" fill="#EA3B3B"/>
<path d="M655.119 330.577C657.521 329.904 660.022 331.263 660.764 333.644C661.507 336.024 660.222 338.564 657.864 339.376C656.276 339.923 654.516 339.563 653.269 338.437C652.023 337.311 651.488 335.596 651.873 333.961C652.258 332.326 653.501 331.029 655.119 330.577Z" fill="#EA3B3B"/>
<path d="M636.944 225.906C638.681 225.911 640.63 225.848 642.065 226.978C643.057 227.758 643.627 228.83 643.628 230.111C643.63 232.229 642.434 233.717 641.166 235.28C639.568 235.572 638.018 235.587 636.638 234.57C635.778 233.937 635.266 232.999 635.071 231.963C634.621 229.584 635.604 227.778 636.944 225.906Z" fill="#EA3B3B"/>
<path d="M628.07 206.611C630.453 206.934 632.818 206.933 634.657 208.566C635.217 210.297 634.815 211.597 634.421 213.334C633.664 213.6 632.844 213.928 632.05 214.048C630.698 214.252 630.057 213.915 628.988 213.164C627.95 211.142 628.128 208.839 628.07 206.611Z" fill="#EA3B3B"/>
<path d="M656.614 351.05C657.809 351.027 659.524 351.029 660.58 351.678C661.83 352.446 661.853 352.865 662.158 354.195C661.877 355.881 660.976 356.795 659.897 358.073L659.154 358.426C658.631 358.292 657.797 358.139 657.313 357.845C656.304 357.23 655.383 355.744 655.283 354.535C655.149 352.933 655.798 352.302 656.614 351.05Z" fill="#EA3B3B"/>
<path d="M621.631 196.322C623.455 196.115 626.106 195.492 627.669 196.549C627.993 198.3 627.272 199.458 626.652 201.079C626.256 201.385 625.877 201.385 625.394 201.473C623.419 200.262 622.259 198.531 621.631 196.322Z" fill="#EA3B3B"/>
<path d="M683.33 755.169C683.865 755.284 683.763 755.252 684.399 755.45C686.208 756.015 687.712 756.84 688.54 758.627C689.097 759.829 689.125 761.135 688.601 762.354C687.765 764.298 686.236 765.09 684.36 765.829C683.038 765.709 680.872 765.741 679.768 764.978C678.735 764.264 678.001 763.284 677.687 762.066C677.352 760.767 677.635 759.493 678.321 758.358C679.517 756.382 681.207 755.783 683.33 755.169Z" fill="#651616"/>
<path d="M657.447 764.697C659.197 765.211 661.194 765.894 662.174 767.562C662.787 768.604 662.959 770.007 662.487 771.136C661.74 772.92 660.194 773.777 658.469 774.381L657.977 774.27C656.056 773.816 654.346 773.334 653.321 771.503C652.753 770.487 652.749 769.612 653.071 768.514C653.688 766.405 655.601 765.506 657.447 764.697Z" fill="#651616"/>
<path d="M488.948 910.789C494.615 910.529 510.358 916.331 517.048 917.863C524.65 919.603 532.684 919.474 540.145 921.388C541.836 921.822 543.501 922.52 544.365 924.137C545.154 925.615 544.984 927.28 544.45 928.81C543.713 930.918 542.758 931.709 540.78 932.635C526.526 932.074 512.263 928.616 498.5 925.055C494.497 924.019 486.92 922.339 484.811 918.352C484.076 916.962 484.418 915.476 484.95 914.065C485.689 912.106 487.122 911.572 488.948 910.789Z" fill="#EA3B3B"/>
<path d="M465.169 901.475C465.889 901.479 466.627 901.483 467.34 901.595C469.081 901.869 470.843 903.027 471.765 904.53C472.492 905.703 472.713 907.12 472.379 908.459C471.85 910.608 470.493 911.64 468.721 912.804C467.452 912.789 465.939 912.656 464.761 912.154C462.209 911.065 461.391 908.287 460.468 905.914C461.897 904.325 463.592 902.919 465.169 901.475Z" fill="#EA3B3B"/>
<path d="M564.228 922.66C566.17 922.163 568.228 922.762 569.6 924.224C570.972 925.685 571.44 927.776 570.823 929.683C570.205 931.589 568.598 933.009 566.63 933.387C563.711 933.949 560.873 932.09 560.223 929.189C559.574 926.288 561.348 923.396 564.228 922.66Z" fill="#EA3B3B"/>
<path d="M564.393 924.715C565.142 924.796 566.278 924.808 566.949 925.123C568.175 925.7 568.252 926.266 568.636 927.44C568.394 929.351 567.61 930.358 566.479 931.882C566.337 931.85 566.192 931.831 566.055 931.786C564.365 931.233 563.537 930.292 562.826 928.753C562.818 926.996 563.433 926.148 564.393 924.715Z" fill="#EA3B3B"/>
<path d="M649.044 816.664C650.747 816.423 653.088 816.133 654.667 816.984C655.783 817.585 656.731 818.986 656.892 820.236C657.016 821.2 656.718 822.175 656.105 822.941C652.048 828.012 624.066 831.03 616.74 831.947C615.14 832.176 613.462 832.228 612.009 831.404C610.672 830.64 609.708 829.358 609.346 827.86C609.113 826.856 609.473 825.861 610.033 825.046C610.818 823.901 612.086 823.372 613.384 823.017C618.289 821.675 623.86 821.411 628.904 820.547C635.646 819.392 642.29 817.719 649.044 816.664Z" fill="#EA3B3B"/>
<path d="M709.925 795.586C712 795.707 714.523 795.974 715.886 797.792C716.606 798.752 716.995 799.766 716.886 800.976C716.672 803.371 714.943 804.93 713.213 806.378C710.893 806.355 708.707 806.197 706.991 804.411C706.131 803.517 705.757 802.347 705.855 801.12C706.067 798.486 708.003 797.109 709.925 795.586Z" fill="#EA3B3B"/>
<path d="M711.092 797.881C712.743 797.808 714.162 799.039 714.322 800.683C714.482 802.327 713.328 803.809 711.695 804.057C710.558 804.229 709.419 803.76 708.734 802.837C708.048 801.914 707.929 800.688 708.423 799.65C708.917 798.612 709.944 797.931 711.092 797.881Z" fill="#651616"/>
<path d="M729.001 785.896C729.129 785.899 729.257 785.892 729.384 785.906C731.089 786.1 733.048 787.221 734.027 788.647C734.819 789.801 735.013 791.155 734.753 792.513C734.268 795.041 732.786 796.082 730.714 797.389C729.161 797.318 727.339 797.176 726.091 796.13C724.3 794.629 724.401 791.811 724.211 789.672C725.707 788.314 727.398 787.126 729.001 785.896Z" fill="#EA3B3B"/>
<path d="M745.799 776.213C748.626 775.445 751.545 777.098 752.338 779.918C753.132 782.738 751.505 785.67 748.692 786.489C745.843 787.318 742.865 785.666 742.061 782.81C741.257 779.955 742.936 776.992 745.799 776.213Z" fill="#EA3B3B"/>
<path d="M691.716 803.201C693.604 803.549 695.862 804.163 697.053 805.825C697.83 806.91 698.172 808.049 697.921 809.37C697.494 811.618 695.783 812.71 694.005 813.904C693.377 813.863 692.753 813.83 692.133 813.719C690.447 813.417 688.682 812.435 687.784 810.938C687.099 809.796 687.045 808.577 687.409 807.311C687.992 805.283 689.991 804.117 691.716 803.201Z" fill="#651616"/>
<path d="M552.927 822.457C555.079 822.537 557.297 822.83 558.914 824.406C559.782 825.252 560.324 826.492 560.234 827.716C560.081 829.82 558.621 831.331 557.131 832.64C556.96 832.651 556.789 832.67 556.617 832.671C554.474 832.685 551.947 832.349 550.46 830.654C549.552 829.62 549.287 828.465 549.469 827.098C549.756 824.935 551.283 823.668 552.927 822.457Z" fill="#EA3B3B"/>
<path d="M671.801 809.855C672.234 809.838 672.446 809.81 672.909 809.906C674.414 810.221 676.657 811.399 677.422 812.787C678.126 814.064 678.333 815.424 677.786 816.807C677.077 818.597 675.719 819.422 674.056 820.208C672.23 819.973 670.137 819.668 668.634 818.513C667.703 817.797 667.171 816.791 667.185 815.596C667.216 813.025 669.979 811.205 671.801 809.855Z" fill="#EA3B3B"/>
<path d="M779.801 750.924C780.102 750.941 780.408 750.928 780.706 750.977C782.398 751.259 784.04 752.293 784.894 753.793C785.721 755.247 785.718 756.887 785.201 758.45C784.562 760.386 783.159 761.061 781.433 761.935C779.579 761.838 777.57 761.48 776.361 759.889C775.642 758.941 775.385 758.101 775.514 756.912C775.825 754.045 777.748 752.642 779.801 750.924Z" fill="#EA3B3B"/>
<path d="M763.022 765.19C765.808 764.905 767.999 767.137 770.031 768.751C769.26 771.659 769.042 773.397 766.371 774.983C766.176 774.98 765.98 774.979 765.784 774.974C763.56 774.915 761.656 774.668 760.133 772.882C759.398 772.019 759.143 771.025 759.273 769.916C759.55 767.565 761.233 766.483 763.022 765.19Z" fill="#EA3B3B"/>
<path d="M793.665 738.224C795.896 737.156 798.573 738.049 799.717 740.242C800.862 742.436 800.061 745.141 797.908 746.36C796.447 747.186 794.653 747.15 793.227 746.266C791.801 745.382 790.971 743.79 791.062 742.115C791.153 740.44 792.151 738.948 793.665 738.224Z" fill="#EA3B3B"/>
<path d="M807.886 723.639C809.297 723.705 810.353 723.825 811.602 724.538C813.015 725.345 813.276 726.257 813.648 727.769C813.292 729.401 812.718 730.168 811.629 731.416C809.927 731.345 807.788 731.454 806.399 730.293C805.754 729.754 805.364 729.169 805.308 728.338C805.167 726.235 806.536 725.034 807.886 723.639Z" fill="#EA3B3B"/>
<path d="M819.024 707.385C819.804 707.44 820.588 707.491 821.365 707.582C823.111 707.786 823.859 708.161 824.949 709.527C825.298 711.329 824.77 712.593 824.191 714.297C823.492 714.47 822.585 714.778 821.871 714.768C820.512 714.748 820.256 714.329 819.371 713.427C818.679 711.451 818.934 709.444 819.024 707.385Z" fill="#EA3B3B"/>
<path d="M122.041 413.164C122.479 413.187 122.917 413.215 123.355 413.249C125.34 413.405 126.678 413.51 128.021 415.101C128.633 416.982 128.451 418.239 127.684 420.052C125.012 426.362 117.508 433.376 113.221 439.099C106.163 448.52 99.8162 457.941 94.1992 468.314C91.1642 473.919 88.5732 481.641 82.4072 484.289C81.8442 484.211 81.2812 484.13 80.7252 484.01C79.2172 483.683 77.5522 482.973 76.8062 481.534C76.0532 480.08 76.4872 478.486 76.9842 477.036C81.3722 464.244 110.155 419.004 122.041 413.164Z" fill="#EA3B3B"/>
<path d="M141.32 393.965C144.37 393.572 147.194 395.631 147.753 398.654C148.312 401.677 146.41 404.61 143.422 405.333C141.338 405.837 139.146 405.148 137.725 403.543C136.304 401.938 135.887 399.679 136.64 397.673C137.393 395.666 139.194 394.239 141.32 393.965Z" fill="#EA3B3B"/>
<path d="M70.8451 497.103C71.0751 497.092 71.3041 497.067 71.5351 497.068C73.3181 497.072 75.2451 497.993 76.3901 499.382C77.2881 500.473 77.5491 501.989 77.4081 503.364C77.1361 506.03 75.5261 507.409 73.5081 508.943C72.9981 508.941 72.7001 508.959 72.1691 508.851C70.3661 508.484 68.5931 507.228 67.6511 505.646C66.7821 504.187 66.6551 502.431 67.1511 500.821C67.7571 498.852 69.1411 498.079 70.8451 497.103Z" fill="#EA3B3B"/>
<path d="M159.424 380.264C161.989 379.918 164.375 381.646 164.844 384.191C165.314 386.736 163.703 389.202 161.183 389.794C159.441 390.203 157.615 389.621 156.433 388.278C155.25 386.936 154.902 385.051 155.528 383.375C156.153 381.699 157.651 380.503 159.424 380.264Z" fill="#EA3B3B"/>
<path d="M66.0351 520.316C67.5261 520.87 69.1871 522.018 69.8001 523.579C70.2591 524.747 70.2951 525.933 69.7631 527.088C69.0931 528.542 67.9521 529.066 66.5731 529.704C65.4851 529.307 63.6171 528.753 62.7871 527.924C61.7771 526.915 61.8721 526.459 61.8661 525.129C62.7661 523.098 64.4351 521.799 66.0351 520.316Z" fill="#EA3B3B"/>
<path d="M176.349 367.677C177.806 367.704 179.262 367.857 180.482 368.723C181.523 369.461 182.233 370.513 182.356 371.81C182.537 373.733 181.577 375.298 180.517 376.796C179.484 376.684 178.342 376.607 177.379 376.197C176.119 375.66 175.044 374.595 174.755 373.223C174.321 371.155 175.372 369.403 176.349 367.677Z" fill="#EA3B3B"/>
<path d="M391.352 913.431C392.341 913.341 393.368 913.226 394.361 913.279C395.913 913.362 397.503 914.348 398.474 915.527C399.399 916.652 399.788 918.029 399.445 919.475C398.943 921.588 397.523 922.551 395.782 923.642C394.807 923.75 393.744 923.904 392.772 923.721C391.082 923.403 389.408 922.15 388.535 920.686C387.849 919.536 387.693 918.236 388.048 916.958C388.561 915.107 389.77 914.353 391.352 913.431Z" fill="#EA3B3B"/>
<path d="M361.208 887.488C364.116 887.284 366.667 889.41 366.99 892.307C367.313 895.204 365.293 897.84 362.411 898.281C360.439 898.583 358.46 897.78 357.256 896.19C356.051 894.6 355.815 892.478 356.639 890.662C357.464 888.846 359.218 887.628 361.208 887.488Z" fill="#EA3B3B"/>
<path d="M409.97 924.449C410.612 924.467 411.215 924.518 411.839 924.682C413.676 925.164 415.168 926.102 416.03 927.846C416.632 929.068 416.711 930.411 416.165 931.669C415.325 933.607 414.145 933.999 412.322 934.675C411.381 934.71 410.399 934.761 409.482 934.514C407.97 934.107 406.8 933.218 406.089 931.808C405.36 930.361 405.42 928.955 406.047 927.492C406.889 925.53 408.136 925.193 409.97 924.449Z" fill="#EA3B3B"/>
<path d="M374.694 901.03C376.54 900.95 378.161 901.009 379.86 901.823C381.11 902.422 382.127 903.384 382.49 904.762C383.111 907.121 381.447 909.191 380.147 910.963C379.896 910.992 379.645 911.024 379.394 911.05C377.226 911.271 375.428 911.243 373.7 909.754C372.465 908.689 371.848 907.566 371.851 905.894C371.854 903.817 373.228 902.295 374.694 901.03Z" fill="#EA3B3B"/>
<path d="M427.132 934.646C429.448 934.521 431.412 934.416 433.262 936.018C434.215 936.844 434.769 937.914 434.681 939.204C434.548 941.156 433.255 942.426 431.917 943.691C430.841 943.703 429.722 943.67 428.655 943.514C427.035 943.278 425.171 942.222 424.308 940.785C423.699 939.769 423.594 938.786 423.993 937.664C424.563 936.064 425.735 935.455 427.132 934.646Z" fill="#EA3B3B"/>
<path d="M344.28 873.714C345.786 873.136 347.487 873.42 348.723 874.457C349.958 875.494 350.533 877.12 350.223 878.703C349.913 880.286 348.768 881.576 347.233 882.071C344.948 882.808 342.491 881.592 341.691 879.329C340.891 877.065 342.039 874.576 344.28 873.714Z" fill="#EA3B3B"/>
<path d="M328.8 858.825C330.817 857.551 333.484 858.135 334.783 860.135C336.082 862.136 335.531 864.809 333.547 866.133C332.241 867.004 330.568 867.105 329.166 866.399C327.765 865.692 326.852 864.286 326.776 862.719C326.7 861.151 327.473 859.664 328.8 858.825Z" fill="#EA3B3B"/>
<path d="M444.19 943.29C445.971 943.135 448.139 942.794 449.841 943.519C451.159 944.081 451.392 944.608 451.899 945.891C451.733 947.594 451.136 948.518 450.202 949.928C449.233 950.302 448.356 950.692 447.291 950.649C446.134 950.602 445.039 950.038 444.419 949.04C443.314 947.263 443.763 945.189 444.19 943.29Z" fill="#EA3B3B"/>
<path d="M466.563 949.257C467.977 949.698 469.183 950.05 470.068 951.353C470.74 952.342 470.891 953.649 470.491 954.768C469.983 956.19 468.745 956.882 467.474 957.512C466.115 956.898 464.727 956.306 463.742 955.137C462.895 954.132 463.05 953.193 463.181 951.991C464.077 950.47 465.006 950.028 466.563 949.257Z" fill="#EA3B3B"/>
<path d="M683.911 227.633C686.572 226.523 689.627 227.79 690.722 230.456C691.817 233.122 690.533 236.17 687.86 237.249C685.209 238.32 682.19 237.049 681.104 234.404C680.018 231.759 681.272 228.734 683.911 227.633Z" fill="#EA3B3B"/>
<path d="M687.786 252.88C689.885 252.849 692.292 252.662 694 254.145C694.947 254.967 695.513 255.872 695.497 257.164C695.468 259.46 693.838 260.859 692.352 262.378C692.028 262.397 691.704 262.415 691.379 262.416C689.571 262.428 687.838 261.694 686.587 260.389C685.686 259.436 685.188 258.143 685.297 256.829C685.442 255.084 686.55 253.984 687.786 252.88Z" fill="#EA3B3B"/>
<path d="M688.121 255.35C689.794 255.535 691.411 255.524 692.803 256.574C693.187 258.236 692.743 258.74 692.106 260.286C690.304 260.155 689.438 259.972 688.115 258.707C687.673 257.188 687.778 256.838 688.121 255.35Z" fill="#EA3B3B"/>
<path d="M727.756 201.72C729.704 201.636 731.765 201.479 733.421 202.698C740.399 207.836 755.34 235.908 756.125 244.422C756.343 246.793 755.705 248.045 754.246 249.861C752.483 249.86 750.581 249.956 748.901 249.348C748.736 249.288 748.575 249.216 748.412 249.152C748.026 249.001 747.887 248.976 747.531 248.756C745.5 247.501 743.052 241.026 741.974 238.731C738.699 231.752 735.547 224.848 731.537 218.24C729.947 215.619 725.898 210.565 725.591 207.698C725.355 205.498 726.5 203.418 727.756 201.72Z" fill="#EA3B3B"/>
<path d="M756.988 261.919C757.249 261.92 757.511 261.916 757.773 261.921C759.874 261.963 761.751 262.751 763.14 264.361C764.258 265.659 764.723 267.306 764.471 268.998C764.131 271.273 762.841 272.334 761.103 273.682C758.879 273.753 757.159 273.457 755.438 271.936C754.239 270.877 753.65 269.4 753.666 267.815C753.693 265.174 755.185 263.648 756.988 261.919Z" fill="#EA3B3B"/>
<path d="M757.744 264.567C759.41 263.846 761.349 264.558 762.152 266.186C762.955 267.814 762.34 269.786 760.754 270.669C759.655 271.281 758.309 271.238 757.251 270.557C756.194 269.875 755.598 268.667 755.701 267.414C755.804 266.161 756.589 265.066 757.744 264.567Z" fill="#EA3B3B"/>
<path d="M768.062 312.167C768.845 312.218 768.754 312.191 769.638 312.354C770.957 312.596 772.37 313.464 773.032 314.667C773.772 316.012 773.847 317.343 773.334 318.77C772.653 320.665 771.265 321.268 769.57 322.105C768.362 322.019 767.258 321.902 766.137 321.406C764.814 320.821 763.428 319.458 763.081 318.011C762.806 316.863 762.96 315.849 763.496 314.818C764.436 313.014 766.258 312.708 768.062 312.167Z" fill="#EA3B3B"/>
<path d="M760.919 286.958C762.473 286.792 764.21 286.553 765.766 286.768C767.144 286.959 767.831 287.713 768.618 288.755C769.357 291.496 768.326 293.589 767.089 296.017C765.213 296.28 763.536 296.282 761.926 295.133C760.879 294.385 759.833 293.092 759.689 291.779C759.502 290.074 759.899 288.322 760.919 286.958Z" fill="#EA3B3B"/>
<path d="M706.803 683.781C707.419 683.861 708.026 683.934 708.628 684.094C710.305 684.542 712.196 685.434 712.944 687.115C713.494 688.349 713.259 689.788 712.733 690.984C709.23 698.948 675.292 717.124 666.253 721.56C660.398 724.433 654.256 726.967 648.137 729.221C647.573 729.096 647.008 728.968 646.459 728.786C644.768 728.224 643.515 726.734 642.845 725.117C642.369 723.998 642.387 722.728 642.895 721.623C643.498 720.293 644.651 719.521 645.848 718.766C649.606 716.396 654.034 714.828 658.067 712.951C664.38 710.014 670.888 706.73 676.882 703.182C682.936 699.598 688.93 695.672 694.736 691.699C698.621 689.042 702.465 685.638 706.803 683.781Z" fill="#EA3B3B"/>
<path d="M723.601 669.627C725.777 669.447 728.259 669.021 730.339 669.774C731.844 672.25 731.836 674.335 731.726 677.183C730.882 678.682 730.148 678.676 728.584 679.299C727.314 679.559 725.229 680.302 724.081 679.548C722.893 678.769 721.814 677.47 721.584 676.044C721.161 673.419 722.094 671.67 723.601 669.627Z" fill="#EA3B3B"/>
<path d="M726.94 671.268C727.597 671.381 728.77 671.379 729.2 671.898C729.894 672.733 730.254 673.774 730.126 674.85C729.933 676.464 729.719 676.583 728.471 677.637C727.277 677.708 726.569 677.865 725.525 677.18C725.033 674.902 725.932 673.31 726.94 671.268Z" fill="#651616"/>
<path d="M742.146 651.323C743.205 651.271 744.584 651.107 745.592 651.486C747.21 652.095 748.221 653.269 748.952 654.807C749.603 656.177 749.625 657.654 749.016 659.06C748.435 660.402 747.571 660.633 746.289 661.068C743.657 660.75 741.237 660.338 738.691 659.584C739.12 655.809 739.056 653.934 742.146 651.323Z" fill="#EA3B3B"/>
<path d="M742.251 653.749C744.37 654.07 745.586 654.462 746.93 656.225C747.153 657.502 747.261 657.763 746.778 658.944C745.715 658.991 744.611 659.079 743.549 659.01C742.201 658.922 741.658 658.662 740.751 657.699C740.685 656.049 741.419 655.09 742.251 653.749Z" fill="#EA3B3B"/>
<path d="M622.451 727.173C625.11 726.702 627.662 728.43 628.212 731.073C628.762 733.717 627.11 736.318 624.483 736.946C622.713 737.368 620.854 736.795 619.63 735.45C618.405 734.105 618.009 732.201 618.596 730.479C619.183 728.757 620.66 727.491 622.451 727.173Z" fill="#EA3B3B"/>
<path d="M622.446 729.569C623.427 729.308 624.471 729.615 625.154 730.364C625.838 731.114 626.046 732.182 625.695 733.134C625.344 734.085 624.492 734.762 623.485 734.889C622.067 735.067 620.754 734.117 620.48 732.714C620.206 731.312 621.066 729.937 622.446 729.569Z" fill="#EA3B3B"/>
<path d="M149.059 682.645C149.526 682.767 149.996 682.881 150.453 683.038C152.199 683.638 153.696 684.828 154.451 686.537C155.115 688.04 155.123 689.615 154.509 691.135C153.631 693.306 152.238 694.071 150.142 694.893C149.338 694.764 148.49 694.64 147.722 694.361C146.171 693.799 144.948 692.447 144.383 690.921C143.688 689.046 143.954 687.251 144.892 685.514C145.876 683.69 147.156 683.246 149.059 682.645Z" fill="#EA3B3B"/>
<path d="M147.709 704.503C149.784 704.4 151.972 704.254 153.851 705.302C155.162 706.033 156.088 707.171 156.358 708.665C156.801 711.112 155.012 713.528 153.556 715.273C153.098 715.466 152.438 715.798 151.924 715.854C150.602 715.999 149.353 715.37 148.353 714.555C146.769 713.265 145.971 711.223 145.799 709.229C145.615 707.096 146.371 706.02 147.709 704.503Z" fill="#EA3B3B"/>
<path d="M146.672 662.293C147.232 662.271 147.792 662.252 148.353 662.271C150.254 662.336 152.01 663.102 153.231 664.593C154.208 665.785 154.581 667.239 154.322 668.751C153.934 671.016 152.593 672.111 150.82 673.404C150.473 673.437 150.125 673.477 149.776 673.487C148.302 673.528 146.371 672.328 145.404 671.264C144.339 670.093 143.838 668.342 143.961 666.778C144.116 664.806 145.303 663.582 146.672 662.293Z" fill="#EA3B3B"/>
<path d="M152.652 725.583C155.463 724.761 158.407 726.382 159.215 729.197C160.023 732.012 158.387 734.946 155.567 735.74C152.768 736.528 149.858 734.906 149.056 732.111C148.254 729.317 149.861 726.399 152.652 725.583Z" fill="#EA3B3B"/>
<path d="M147.876 641.708C149.777 641.873 151.686 641.985 153.005 643.552C153.754 644.441 154.027 645.474 153.878 646.612C153.576 648.918 152.058 650.267 150.374 651.691C149.89 651.711 149.475 651.758 148.99 651.623C147.859 651.307 146.852 650.393 146.188 649.456C145.265 648.154 144.858 646.268 145.287 644.709C145.716 643.152 146.618 642.55 147.876 641.708Z" fill="#EA3B3B"/>
<path d="M157.067 746.915C159.263 745.972 161.81 746.972 162.778 749.157C163.746 751.342 162.775 753.898 160.601 754.891C159.172 755.544 157.503 755.379 156.23 754.458C154.958 753.537 154.278 752.004 154.451 750.443C154.624 748.882 155.623 747.534 157.067 746.915Z" fill="#EA3B3B"/>
<path d="M162.958 767.106C164.648 766.454 166.551 767.238 167.293 768.889C168.034 770.54 167.355 772.483 165.745 773.312C164.624 773.89 163.276 773.802 162.24 773.082C161.204 772.363 160.651 771.13 160.801 769.878C160.952 768.626 161.782 767.559 162.958 767.106Z" fill="#EA3B3B"/>
<path d="M19.9726 443.554C21.1118 441.994 21.0364 440.649 22.4448 439.046C23.5639 440.136 23.0725 439.578 23.4924 441.482C21.4349 445.316 20.5478 448.686 18.4897 452.417L19.9726 443.554Z" fill="#EA3B3B"/>
<path d="M821.353 29.9084C824.246 29.768 827.323 30.1515 829.229 32.5812C829.959 33.2321 830.477 36.2923 829.994 37.2059C825.223 46.2301 816.45 54.7738 809.775 62.3925L781.006 95.2225C777.249 99.4615 762.417 117.494 758.89 119.57C753.735 119.58 748.062 116.383 750.012 111.548C752.689 104.908 763.416 94.3795 768.076 89.0885C777.538 78.1885 787.098 67.3745 796.754 56.6461C801.81 50.9672 816.263 33.7111 821.353 29.9084Z" fill="#EA3B3B"/>
<path d="M819.8 32.9865C821.764 32.9021 824.825 33.0536 826.673 33.7072L826.314 34.5426C823.343 33.8865 822.396 34.4064 819.543 34.0811L819.8 32.9865Z" fill="#651616"/>
<path d="M105.721 884.953C106.588 884.97 107.52 884.947 108.358 885.211C110.36 885.842 112.459 887.564 113.264 889.525C113.97 891.243 113.948 893.772 112.971 895.395C111.456 897.911 107.775 900.628 105.64 902.772L84.309 924.153C71.013 937.429 58.2359 951.702 44.3653 964.332C42.8237 965.736 41.3645 966.599 39.4129 967.34C38.4549 967.272 37.4399 967.158 36.5092 966.91C34.6652 966.419 32.5393 964.978 31.6486 963.246C31.0472 962.077 30.9461 960.235 31.4783 959.02C33.1393 955.229 93.514 894.472 100.834 887.989C102.359 886.638 103.774 885.646 105.721 884.953Z" fill="#EA3B3B"/>
<path d="M735.186 0.00303631C738.236 -0.0593637 743.087 0.816038 743.123 4.86224C743.218 15.4762 739.948 26.7923 737.784 37.2796C734.299 53.4516 731.043 69.6717 728.015 85.9355C726.908 91.6345 726.653 96.4445 721.807 99.7215C720.517 99.5625 719.239 99.3205 717.98 98.9985C715.952 98.4605 714.148 97.4235 713.218 95.4695C710.961 90.7285 724.48 33.9622 726.388 25.1679C727.83 18.5257 728.665 11.1475 730.785 4.71424C731.614 2.19624 732.857 1.14394 735.186 0.00303631Z" fill="#EA3B3B"/>
<path d="M865.954 112.055C875.008 112.47 877.602 122.332 868.185 125.661C847.183 133.088 825.707 139.204 804.591 146.369C798.771 148.344 792.648 150.223 786.666 151.631C774.949 152.112 777.364 140.818 782.247 139.065C809.778 129.187 838.208 121.342 865.954 112.055Z" fill="#EA3B3B"/>
<path d="M84.5811 853.657C86.3421 853.614 88.3741 853.676 89.9101 854.635C91.2741 855.486 92.2921 857.012 92.6061 858.586C93.0071 860.602 92.2751 862.735 91.1231 864.379C90.1821 865.721 89.0651 866.545 87.4881 867.002C78.4841 869.612 68.4841 870.582 59.2407 872.456C42.2563 875.9 25.3708 879.954 8.32485 883.059C6.64435 883.1 5.02506 883.088 3.53686 882.197C1.97766 881.264 0.548954 879.396 0.158354 877.611C-0.244746 875.769 0.124556 873.748 1.23406 872.215C1.87426 871.331 2.67545 870.656 3.70165 870.257C10.6454 867.556 18.9019 866.767 26.2194 865.184C45.6013 860.99 64.9651 856.651 84.5811 853.657Z" fill="#EA3B3B"/>
<path d="M137.557 904.782C138.871 904.683 140.278 904.525 141.581 904.763C143.206 905.06 144.883 905.896 145.782 907.33C146.868 909.064 146.51 911.646 146.335 913.608C145.628 921.533 143.611 929.496 142.107 937.312C140.042 948.045 138.236 958.819 136.094 969.54C134.975 975.144 133.41 987.344 131.104 992.034C130.148 993.984 128.951 995.084 127.171 996.274C126.187 996.354 125.138 996.414 124.159 996.264C122.181 995.954 120.31 994.974 119.283 993.224C118.312 991.574 118.666 989.164 118.866 987.314C119.324 983.034 120.41 978.774 121.161 974.544C122.758 965.091 124.5 955.662 126.388 946.262C128.722 934.294 130.466 922.042 133.233 910.179C133.951 907.099 134.928 906.415 137.557 904.782Z" fill="#EA3B3B"/>
<path d="M861.181 535.856C862.417 535.76 863.672 535.654 864.898 535.887C866.697 536.228 868.629 537.288 869.572 538.907C870.43 540.382 870.349 542.263 869.854 543.846C868.337 548.702 829.157 588.672 823.63 593.912C822.092 595.371 820.524 596.633 818.678 597.694C817.734 597.686 816.758 597.686 815.825 597.536C814.003 597.244 811.808 596.019 810.811 594.436C809.899 592.989 809.821 591.125 810.208 589.498C810.695 587.449 812.395 585.598 813.75 584.034C820.296 576.482 827.878 569.5 834.838 562.303C840.454 556.495 855.544 539.166 861.181 535.856Z" fill="#EA3B3B"/>
<path d="M796.599 503.354C797.967 503.34 799.416 503.285 800.686 503.865C802.522 504.704 803.291 506.165 803.882 508C804.447 509.751 804.136 511.858 803.883 513.656C802.932 520.431 793.377 575.15 791.821 577.939C790.82 579.733 789.106 580.063 787.272 580.66C786.41 580.543 785.578 580.354 784.747 580.098C782.961 579.548 780.803 578.473 780.03 576.64C777.801 571.355 786.773 532.051 788.358 523.804C789.314 518.826 789.712 511.439 791.757 506.922C792.709 504.818 794.582 504.168 796.599 503.354Z" fill="#EA3B3B"/>
<path d="M794.237 181.504C805.073 180.844 836.113 189.57 847.99 192.287C851.664 193.128 856.287 193.777 858.332 197.356C859.299 199.04 859.508 201.055 858.909 202.901C858.299 204.789 857.374 205.586 855.677 206.507C853.266 206.712 851.075 206.704 848.684 206.3C838.123 204.515 827.748 201.556 817.297 199.224C809.953 197.585 801.06 196.651 794.152 193.78C792.945 193.279 791.881 192.363 791.171 191.267C790.24 189.831 790.084 188.047 790.463 186.405C791.011 184.032 792.273 182.815 794.237 181.504Z" fill="#EA3B3B"/>
<path d="M178.945 911.363C180.246 911.291 181.658 911.231 182.949 911.402C184.322 911.585 185.545 912.551 186.342 913.639C189.237 917.59 207.857 958.384 209.975 964.494C210.622 966.36 211.116 968.095 210.713 970.067C210.188 972.638 208.537 973.768 206.431 975.098C205.267 975.175 204.272 975.151 203.125 974.896C200.905 974.404 199.471 973.409 198.265 971.499C192.179 961.862 188.106 949.938 183.419 939.497C180.745 933.539 177.128 927.375 175.231 921.143C174.677 919.323 174.412 917.29 174.931 915.426C175.531 913.267 177.094 912.387 178.945 911.363Z" fill="#EA3B3B"/>
<path d="M25.5131 791.235C26.4709 791.167 27.4418 791.114 28.3993 791.224C34.1004 791.873 81.8722 813.105 84.4042 816.829C85.4572 818.378 85.7242 820.163 85.2172 821.954C84.5212 824.412 83.2602 825.594 81.0792 826.798C79.5572 826.869 78.0682 826.869 76.5842 826.478C65.3552 823.524 51.4303 815.518 40.7077 810.488C35.5963 808.09 30.1311 806.283 25.2113 803.512C23.7567 802.693 22.2645 801.804 21.4008 800.326C20.6016 798.958 20.4483 797.526 20.9197 796.028C21.7616 793.351 23.0795 792.458 25.5131 791.235Z" fill="#EA3B3B"/>
<path d="M662.225 59.1116C658.857 50.1237 651.585 34.0258 652.875 24.2277C653.602 18.7093 661.508 19.3281 664.042 24.2552C664.037 24.5457 664.031 24.8362 664.026 25.1268C667.265 41.6019 674.68 57.1902 679.702 73.1986C680.873 76.9305 683.437 80.0665 682.837 84.0175C682.178 88.3535 678.85 91.3275 674.823 87.9785C668.477 82.7025 667.018 62.8241 662.225 59.1116Z" fill="#EA3B3B"/>
<path d="M882.597 603.274C884.778 603.014 886.649 602.934 888.639 604.011C890.162 604.837 891.268 606.173 891.714 607.855C892.273 609.96 891.924 612.451 890.753 614.294C890.013 615.459 889.107 616.177 887.816 616.663C883.177 618.409 877.363 618.705 872.477 619.641C862.803 621.495 853.173 623.641 843.499 625.524C840.913 625.626 837.618 625.828 835.331 624.433C834.143 623.709 833.747 622.831 833.468 621.525C833.03 619.472 832.985 617.085 834.289 615.32C835.394 613.824 837.53 613.134 839.228 612.581C844.48 610.868 850.188 610.141 855.591 608.99C864.595 607.072 873.531 604.895 882.597 603.274Z" fill="#EA3B3B"/>
<path d="M732.709 520.632C733.621 520.807 734.59 520.979 735.423 521.407C736.358 521.9 737.15 522.623 737.725 523.509C742.139 530.452 751.185 557.103 754.112 566.071C754.955 568.651 755.913 571.282 754.455 573.826C753.346 575.761 751.575 576.301 749.552 576.915C748.085 576.834 746.453 576.833 745.098 576.197C741.656 574.583 739.579 566.852 738.283 563.344C736.189 557.676 724.406 527.999 726.526 524.117C727.896 521.611 730.132 521.258 732.709 520.632Z" fill="#EA3B3B"/>
<path d="M664.042 24.2552C665.178 25.9109 672.579 47.6123 673.112 49.4369C674.815 55.2698 685.687 82.4186 684.037 85.6856C673.555 106.442 663.219 62.9924 662.225 59.1116C667.018 62.8242 668.477 82.7026 674.823 87.9786C678.85 91.3276 682.178 88.3535 682.837 84.0175C683.437 80.0665 680.873 76.9306 679.702 73.1987C674.68 57.1903 667.265 41.6019 664.026 25.1269C664.031 24.8363 664.037 24.5457 664.042 24.2552Z" fill="#EA3B3B"/>
</svg>
